<?xml version="1.0" encoding="UTF-8"?>
<svg width="279px" height="279px" viewBox="0 0 279 279" version="1.1" xmlns="http://www.w3.org/2000/svg" xmlns:xlink="http://www.w3.org/1999/xlink">
    <!-- Generator: Sketch 54.1 (76490) - https://sketchapp.com -->
    <title>mellow</title>
    <desc>Created with Sketch.</desc>
    <g id="Page-1" stroke="none" stroke-width="1" fill="none" fill-rule="evenodd">
        <circle id="Oval" stroke="#000000" stroke-width="3.3" fill="#000000" cx="139.5" cy="139.5" r="137.5"></circle>
        <g id="kazewaze" transform="translate(13.000000, 73.000000)" fill="#FFFEFC" stroke="#FFFEFC">
            <rect id="Rectangle" transform="translate(174.500000, 42.500000) rotate(45.000000) translate(-174.500000, -42.500000) " x="132" y="26" width="85" height="33" rx="8"></rect>
            <rect id="Rectangle-Copy" transform="translate(211.010408, 42.510408) rotate(-45.000000) translate(-211.010408, -42.510408) " x="168.510408" y="26.0104076" width="85" height="33" rx="8"></rect>
            <rect id="Rectangle-Copy" transform="translate(153.767767, 127.621320) rotate(-45.000000) translate(-153.767767, -127.621320) " x="103.267767" y="116.12132" width="101" height="23" rx="8"></rect>
            <rect id="Rectangle-Copy" transform="translate(99.267767, 127.621320) rotate(45.000000) translate(-99.267767, -127.621320) " x="49.267767" y="116.12132" width="100" height="23" rx="8"></rect>
            <rect id="Rectangle" transform="translate(42.500000, 42.500000) rotate(45.000000) translate(-42.500000, -42.500000) " x="0" y="26" width="85" height="33" rx="8"></rect>
            <rect id="Rectangle-Copy" transform="translate(79.010408, 42.510408) rotate(-45.000000) translate(-79.010408, -42.510408) " x="36.5104076" y="26.0104076" width="85" height="33" rx="8"></rect>
        </g>
    </g>
</svg>